

<svg version="1.1" id="Capa_1"
    xmlns="http://www.w3.org/2000/svg"
    xmlns:xlink="http://www.w3.org/1999/xlink" x="0px" y="0px"
	 viewBox="0 0 480.379 480.379" style="enable-background:new 0 0 480.379 480.379;" xml:space="preserve">
    <g id="XMLID_108_">
        <path id="XMLID_110_" d="M105.975,323.808l-33.27,33.263c-16.632-16.629-43.612-16.619-60.237,0.01
		c-16.625,16.625-16.625,43.594,0,60.223c9.774,9.766,23.089,13.64,35.812,11.932c-1.716,12.713,2.142,26.04,11.916,35.801
		c16.625,16.629,43.605,16.635,60.229,0c16.646-16.629,16.646-43.604,0-60.232l33.277-33.272L105.975,323.808z"/>
        <path id="XMLID_109_" d="M419.137,111.016l28.689,8.541c13.4,3.996,27.502-3.633,31.495-17.032
		c3.988-13.397-3.645-27.495-17.044-31.483l-34.489-10.273c-3.677-1.08-7.748-1.377-11.748-0.646l-61.985,11.281
		c-6.555,1.212-12.703,5.028-16.645,11.058l-0.522,0.809l-30.773,47.238l13.103-61.973l41.844-11.832l43.669-3.286
		c13.941-1.046,24.406-13.201,23.354-27.135c-1.039-13.941-13.2-24.396-27.141-23.342L354.72,6.42
		c-1.62,0.13-3.379,0.42-4.993,0.881l-58.92,16.662c-7.329,2.124-13.741,7.58-16.658,15.266l-0.741,1.961l-16.612,43.789
		l-13.232,34.853l-21.754,21.751l-17.767-17.97l16.909-28.889l1.748-2.997c8.238-14.084,3.491-32.17-10.58-40.409
		c-14.07-8.232-32.167-3.493-40.405,10.58l-30.011,51.317c-5.406,9.294-5.49,21.257,0.807,30.857l1.729,2.635l9.806,14.922
		l18.922,28.798L127.2,236.202c-16.878,16.877-16.878,44.23,0,61.107l52.997,52.997c8.109,8.107,19.103,12.655,30.555,12.655
		c11.451,0,22.444-4.549,30.553-12.655l76.204-76.209l62.998-15.754l0.231,0.24l15.922,15.928c4.116,4.118,9.522,6.176,14.928,6.176
		c5.388,0,10.774-2.058,14.897-6.176c8.238-8.242,8.238-21.59,0-29.829l-24.606-24.615c-4.265-4.274-10.135-6.342-16.032-6.022
		c-1.334,0.073-2.671,0.142-3.986,0.478l-23.833,5.958l18.394-15.871l25.012-21.596l11.767,4.821l19.631,27.009
		c8.219,11.314,24.038,13.819,35.347,5.594c11.323-8.222,13.806-24.05,5.6-35.356l-23.864-32.818
		c-2.749-3.801-6.523-6.758-10.871-8.536l-32.799-13.448c-8.8-3.635-18.901-1.977-26.134,4.251l-26.238,22.651l21.045-38.124
		L419.137,111.016z"/>
    </svg>
